<?xml version="1.0" encoding="UTF-8"?>
<svg version="1.1" xmlns="http://www.w3.org/2000/svg" width="149" height="126">
<path d="M0 0 C1.19206055 -0.01063477 1.19206055 -0.01063477 2.40820312 -0.02148438 C13.55929124 0.09646855 22.34540719 4.53991517 30.38671875 12.16796875 C37.48275059 19.97896601 40.47526907 28.94533194 40.59765625 39.45703125 C39.94231896 51.90843985 35.49715235 59.8493856 26.5625 68.4375 C16.75068841 76.54165117 7.38800088 78.32165247 -5.12890625 77.1953125 C-12.16370286 76.23646679 -16.90213119 73.8031305 -22.4375 69.4375 C-23.2728125 68.82003906 -24.108125 68.20257813 -24.96875 67.56640625 C-32.19864639 61.33176459 -36.6943495 51.83360427 -37.78515625 42.4453125 C-38.31772732 31.05648493 -34.67775669 21.06234882 -27.3203125 12.3671875 C-24.30410119 9.27588379 -21.12971009 6.67807193 -17.4375 4.4375 C-16.87522705 4.09404541 -16.3129541 3.75059082 -15.73364258 3.39672852 C-10.41271212 0.41120208 -6.04000834 -0.15112208 0 0 Z " fill="#8F7031" transform="translate(71.4375,22.5625)"/>
<path d="M0 0 C8.50632932 5.41970556 15.03302232 11.9114213 18.1875 21.62890625 C19.92796352 30.81920428 19.49151626 40.72595835 14.60546875 48.8359375 C12.48076641 51.74775717 10.16885781 54.30650062 7.60546875 56.8359375 C6.71859375 57.7434375 5.83171875 58.6509375 4.91796875 59.5859375 C-2.57895681 65.46783388 -12.2129556 66.48660034 -21.39453125 65.8359375 C-22.51953125 60.0859375 -22.51953125 60.0859375 -21.39453125 57.8359375 C-26.34453125 58.3309375 -26.34453125 58.3309375 -31.39453125 58.8359375 C-30.40453125 58.3409375 -30.40453125 58.3409375 -29.39453125 57.8359375 C-28.73898006 55.30860515 -28.73898006 55.30860515 -28.39453125 52.8359375 C-27.73453125 52.8359375 -27.07453125 52.8359375 -26.39453125 52.8359375 C-26.39453125 53.8259375 -26.39453125 54.8159375 -26.39453125 55.8359375 C-24.69296875 55.248125 -24.69296875 55.248125 -22.95703125 54.6484375 C-18.15331232 53.04719786 -13.3113013 51.58721231 -8.45703125 50.1484375 C-7.69914307 49.92196533 -6.94125488 49.69549316 -6.16040039 49.4621582 C-0.63324154 47.8359375 -0.63324154 47.8359375 1.60546875 47.8359375 C0.82416804 45.34041266 0.82416804 45.34041266 -0.39453125 42.8359375 C-1.38453125 42.5059375 -2.37453125 42.1759375 -3.39453125 41.8359375 C-2.73453125 41.8359375 -2.07453125 41.8359375 -1.39453125 41.8359375 C-1.55824219 41.00835937 -1.72195312 40.18078125 -1.890625 39.328125 C-2.44098595 35.51399561 -2.5054218 31.80240249 -2.45703125 27.9609375 C-2.45251953 27.27257812 -2.44800781 26.58421875 -2.44335938 25.875 C-2.43169461 24.19527415 -2.41376396 22.51559375 -2.39453125 20.8359375 C-2.96300781 20.9803125 -3.53148437 21.1246875 -4.1171875 21.2734375 C-9.00667284 22.44887304 -13.33981098 22.93314366 -18.39453125 22.8359375 C-19.30203125 23.0421875 -20.20953125 23.2484375 -21.14453125 23.4609375 C-23.39453125 23.8359375 -23.39453125 23.8359375 -26.39453125 21.8359375 C-24.69296875 21.371875 -24.69296875 21.371875 -22.95703125 20.8984375 C-19.60678026 20.20669219 -19.60678026 20.20669219 -18.39453125 18.8359375 C-16.85358827 18.78870553 -15.31074783 18.79868755 -13.76953125 18.8359375 C-10.56784819 18.87721995 -7.55342448 18.79991971 -4.39453125 18.2734375 C-1.39453125 17.8359375 -1.39453125 17.8359375 0.60546875 18.8359375 C0.92332781 15.33948787 1.0019148 13.4385355 -0.95703125 10.4609375 C-4.3073666 8.2273806 -6.44267455 8.34195541 -10.39453125 8.8359375 C-12.79536563 10.19478866 -12.79536563 10.19478866 -14.39453125 11.8359375 C-14.06453125 9.8559375 -13.73453125 7.8759375 -13.39453125 5.8359375 C-14.83314419 5.92340034 -16.27050633 6.03159098 -17.70703125 6.1484375 C-18.50753906 6.20644531 -19.30804688 6.26445313 -20.1328125 6.32421875 C-22.84396762 6.93762345 -23.74387043 7.6216364 -25.39453125 9.8359375 C-26.17266777 11.86935637 -26.17266777 11.86935637 -26.58203125 14.0234375 C-26.85015625 15.2815625 -27.11828125 16.5396875 -27.39453125 17.8359375 C-27.72453125 17.8359375 -28.05453125 17.8359375 -28.39453125 17.8359375 C-28.39453125 16.1859375 -28.39453125 14.5359375 -28.39453125 12.8359375 C-29.26078125 13.3515625 -30.12703125 13.8671875 -31.01953125 14.3984375 C-34.78856618 16.00376719 -36.50338224 15.85504795 -40.39453125 14.8359375 C-40.39453125 12.8559375 -40.39453125 10.8759375 -40.39453125 8.8359375 C-37.82239991 7.21644739 -36.71783966 6.79184999 -33.64453125 7.2109375 C-32.90203125 7.4171875 -32.15953125 7.6234375 -31.39453125 7.8359375 C-31.39453125 7.1759375 -31.39453125 6.5159375 -31.39453125 5.8359375 C-30.21890625 5.7121875 -30.21890625 5.7121875 -29.01953125 5.5859375 C-28.15328125 5.3384375 -27.28703125 5.0909375 -26.39453125 4.8359375 C-26.06453125 4.1759375 -25.73453125 3.5159375 -25.39453125 2.8359375 C-25.06453125 2.1759375 -24.73453125 1.5159375 -24.39453125 0.8359375 C-22.20703125 0.2109375 -22.20703125 0.2109375 -19.39453125 -0.1640625 C-18.34265625 -0.5353125 -17.29078125 -0.9065625 -16.20703125 -1.2890625 C-10.47373099 -2.6049019 -5.37495556 -2.6129474 0 0 Z " fill="#8F6E24" transform="translate(88.39453125,30.1640625)"/>
<path d="M0 0 C1.21236328 0.04060547 1.21236328 0.04060547 2.44921875 0.08203125 C3.06410156 0.11683594 3.67898437 0.15164062 4.3125 0.1875 C4.3125 1.8375 4.3125 3.4875 4.3125 5.1875 C4.8384375 4.445 4.8384375 4.445 5.375 3.6875 C7.3125 2.1875 7.3125 2.1875 10.6875 1.6875 C14.3125 2.1875 14.3125 2.1875 17.3125 4.3125 C19.3125 7.1875 19.3125 7.1875 19.125 10.5 C18.856875 11.386875 18.58875 12.27375 18.3125 13.1875 C17.260625 13.166875 16.20875 13.14625 15.125 13.125 C11.51079982 13.06983273 11.51079982 13.06983273 8.8125 13.6875 C6.3125 14.1875 6.3125 14.1875 2.8125 14.0625 C-0.98412927 14.1980939 -2.65918845 14.9850916 -5.6875 17.1875 C-4.759375 16.94 -4.759375 16.94 -3.8125 16.6875 C-0.09692081 16.09300733 3.44890263 16.16114267 7.203125 16.25 C9.29939754 16.42922062 9.29939754 16.42922062 10.3125 15.1875 C11.9625 15.1875 13.6125 15.1875 15.3125 15.1875 C15.8075 25.5825 15.8075 25.5825 16.3125 36.1875 C6.1875 38.4375 6.1875 38.4375 1.3125 37.1875 C1.3125 36.8575 1.3125 36.5275 1.3125 36.1875 C3.6225 36.1875 5.9325 36.1875 8.3125 36.1875 C7.6525 30.9075 6.9925 25.6275 6.3125 20.1875 C5.6525 20.1875 4.9925 20.1875 4.3125 20.1875 C4.456875 20.76757812 4.60125 21.34765625 4.75 21.9453125 C5.82139428 26.45409675 6.55195936 30.51804247 6.3125 35.1875 C3.3125 33.1875 3.3125 33.1875 2.58203125 30.3671875 C2.43121094 29.27664062 2.28039062 28.18609375 2.125 27.0625 C1.96644531 25.96679688 1.80789062 24.87109375 1.64453125 23.7421875 C1.53496094 22.89914063 1.42539063 22.05609375 1.3125 21.1875 C0.6525 21.1875 -0.0075 21.1875 -0.6875 21.1875 C-0.6875 23.1675 -0.6875 25.1475 -0.6875 27.1875 C-1.0175 26.1975 -1.3475 25.2075 -1.6875 24.1875 C-2.3475 24.1875 -3.0075 24.1875 -3.6875 24.1875 C-3.6875 23.5275 -3.6875 22.8675 -3.6875 22.1875 C-4.3475 22.1875 -5.0075 22.1875 -5.6875 22.1875 C-5.6875 22.8475 -5.6875 23.5075 -5.6875 24.1875 C-7.0075 23.8575 -8.3275 23.5275 -9.6875 23.1875 C-9.07204214 25.50293614 -8.44571964 27.81442196 -7.8125 30.125 C-7.63847656 30.78435547 -7.46445312 31.44371094 -7.28515625 32.12304688 C-6.81273763 33.829003 -6.25534972 35.51089261 -5.6875 37.1875 C-5.0275 37.5175 -4.3675 37.8475 -3.6875 38.1875 C-3.3575 37.1975 -3.0275 36.2075 -2.6875 35.1875 C-1.3675 36.5075 -0.0475 37.8275 1.3125 39.1875 C-1.6575 39.8475 -4.6275 40.5075 -7.6875 41.1875 C-8.50440177 38.95986012 -9.31611872 36.7305514 -10.125 34.5 C-10.35509766 33.87416016 -10.58519531 33.24832031 -10.82226562 32.60351562 C-11.81905027 29.84430015 -12.68581979 27.19653878 -13.22265625 24.30859375 C-13.37605469 23.60863281 -13.52945313 22.90867187 -13.6875 22.1875 C-15.62133287 20.88684079 -15.62133287 20.88684079 -17.6875 20.1875 C-18.6875 19.1875 -18.6875 19.1875 -19.0625 15.9375 C-18.6875 12.1875 -18.6875 12.1875 -16.4375 9.1875 C-13.6875 7.1875 -13.6875 7.1875 -11.375 7.375 C-10.818125 7.643125 -10.26125 7.91125 -9.6875 8.1875 C-9.419375 7.424375 -9.15125 6.66125 -8.875 5.875 C-6.82560773 1.23690171 -5.11845584 -0.22254156 0 0 Z " fill="#FAEDAC" transform="translate(70.6875,35.8125)"/>
<path d="M0 0 C1.19206055 -0.01063477 1.19206055 -0.01063477 2.40820312 -0.02148438 C13.55929124 0.09646855 22.34540719 4.53991517 30.38671875 12.16796875 C37.48275059 19.97896601 40.47526907 28.94533194 40.59765625 39.45703125 C39.94231896 51.90843985 35.49715235 59.8493856 26.5625 68.4375 C16.75068841 76.54165117 7.38800088 78.32165247 -5.12890625 77.1953125 C-12.16370286 76.23646679 -16.90213119 73.8031305 -22.4375 69.4375 C-23.2728125 68.82003906 -24.108125 68.20257813 -24.96875 67.56640625 C-32.19864639 61.33176459 -36.6943495 51.83360427 -37.78515625 42.4453125 C-38.31772732 31.05648493 -34.67775669 21.06234882 -27.3203125 12.3671875 C-24.30410119 9.27588379 -21.12971009 6.67807193 -17.4375 4.4375 C-16.87522705 4.09404541 -16.3129541 3.75059082 -15.73364258 3.39672852 C-10.41271212 0.41120208 -6.04000834 -0.15112208 0 0 Z M-28.4375 17.4375 C-34.89969932 27.02943115 -37.14456194 36.29358563 -34.98828125 47.84375 C-34.53967034 49.39638918 -34.00110592 50.92280909 -33.4375 52.4375 C-32.7775 52.4375 -32.1175 52.4375 -31.4375 52.4375 C-31.375625 53.324375 -31.31375 54.21125 -31.25 55.125 C-30.21453072 59.34652861 -28.70258713 60.5892325 -25.4375 63.4375 C-24.85742188 64.00726563 -24.27734375 64.57703125 -23.6796875 65.1640625 C-15.5168714 72.93030454 -7.73167092 74.96099003 3.28466797 74.85327148 C9.02792794 74.65325426 14.22598016 73.64028952 19.5625 71.4375 C19.5625 70.7775 19.5625 70.1175 19.5625 69.4375 C20.30371094 69.19128906 21.04492188 68.94507812 21.80859375 68.69140625 C28.73787853 65.5363702 33.05173294 58.40527673 35.87109375 51.578125 C39.16999966 41.36456321 38.41995806 30.98047071 33.5625 21.4375 C28.5524968 13.39612778 21.65272647 6.60005264 12.375 3.91015625 C-4.43080292 1.0858477 -16.86532698 4.43240901 -28.4375 17.4375 Z " fill="#484134" transform="translate(71.4375,22.5625)"/>
<path d="M0 0 C0.66 0 1.32 0 2 0 C3.38529821 5.45461169 4.2396943 10.36718401 4 16 C2.35 16.33 0.7 16.66 -1 17 C-0.24074219 16.91621094 0.51851562 16.83242187 1.30078125 16.74609375 C2.29464844 16.64425781 3.28851563 16.54242188 4.3125 16.4375 C5.29863281 16.33308594 6.28476563 16.22867188 7.30078125 16.12109375 C10 16 10 16 13 17 C14.1875 19.5625 14.1875 19.5625 15 22 C12.0229423 22.96496793 9.04299559 23.92070878 6.0625 24.875 C5.23169922 25.14441406 4.40089844 25.41382812 3.54492188 25.69140625 C-1.92810512 27.43766389 -7.37482684 28.83069054 -13 30 C-13 29.01 -13 28.02 -13 27 C-13.66 27.33 -14.32 27.66 -15 28 C-15.144375 28.66 -15.28875 29.32 -15.4375 30 C-15.623125 30.66 -15.80875 31.32 -16 32 C-17.485 32.495 -17.485 32.495 -19 33 C-19 31.35 -19 29.7 -19 28 C-19.99 27.67 -20.98 27.34 -22 27 C-21.34 26.67 -20.68 26.34 -20 26 C-18.9238946 22.42464981 -18.9238946 22.42464981 -20 19 C-19.525625 18.62875 -19.05125 18.2575 -18.5625 17.875 C-16.47794198 15.37353038 -16.35378509 13.18406582 -16 10 C-14.03698408 13.50538557 -13.04097612 17.13351728 -12 21 C-8.04 19.515 -8.04 19.515 -4 18 C-4.99 17.34 -5.98 16.68 -7 16 C-7.33 16.66 -7.66 17.32 -8 18 C-8.99 17.67 -9.98 17.34 -11 17 C-11.94921875 14.6015625 -11.94921875 14.6015625 -12.6875 11.625 C-12.93886719 10.64789063 -13.19023438 9.67078125 -13.44921875 8.6640625 C-14 6 -14 6 -14 3 C-12.68 3.33 -11.36 3.66 -10 4 C-10 3.34 -10 2.68 -10 2 C-9.34 2 -8.68 2 -8 2 C-8 2.66 -8 3.32 -8 4 C-7.34 4 -6.68 4 -6 4 C-5.67 3.01 -5.34 2.02 -5 1 C-4.34 1 -3.68 1 -3 1 C-2.79503906 1.85464844 -2.59007813 2.70929687 -2.37890625 3.58984375 C-2.10949219 4.69457031 -1.84007813 5.79929687 -1.5625 6.9375 C-1.29566406 8.03964844 -1.02882813 9.14179687 -0.75390625 10.27734375 C-0.27004275 12.89421254 -0.27004275 12.89421254 1 14 C0.67 9.38 0.34 4.76 0 0 Z " fill="#927126" transform="translate(75,56)"/>
<path d="M0 0 C3 1 3 1 5 3 C5.33 3 5.66 3 6 3 C6.226875 4.051875 6.45375 5.10375 6.6875 6.1875 C7.80084633 10.18102487 9.96219824 12.1958753 13 15 C14.34379697 19.03139091 14.459415 22.78103896 14 27 C12.5 29.375 12.5 29.375 11 31 C11 31.99 11 32.98 11 34 C10.6937566 35.33981486 10.36548445 36.67511887 10 38 C7.1875 37.8125 7.1875 37.8125 4 37 C1.03436724 33.31852485 -0.21079415 29.62757353 0.16796875 24.90625 C0.40772912 22.93257042 0.70018507 20.96545342 1 19 C0.34 19 -0.32 19 -1 19 C-1.02690104 16.20826945 -1.04679053 13.41679652 -1.0625 10.625 C-1.07087891 9.8309375 -1.07925781 9.036875 -1.08789062 8.21875 C-1.11328125 2.2265625 -1.11328125 2.2265625 0 0 Z " fill="#906E1D" transform="translate(45,45)"/>
<path d="M0 0 C7.4262374 4.96964936 12.99074375 12.73676332 15.43359375 21.33984375 C17.3144362 31.79461667 15.73861864 41.49669184 10.1171875 50.5 C7.26357505 54.51645952 4.00471313 58.03074991 -0.1328125 60.75 C-0.7928125 60.75 -1.4528125 60.75 -2.1328125 60.75 C-2.1328125 61.41 -2.1328125 62.07 -2.1328125 62.75 C-12.58021903 67.06244299 -25.05376014 67.74226806 -35.6953125 63.75 C-41.26143162 61.07398119 -45.12224627 57.36939917 -49.1328125 52.75 C-49.67421875 52.27175781 -50.215625 51.79351562 -50.7734375 51.30078125 C-52.5280856 49.29907063 -52.83079902 47.66068694 -53.3203125 45.0625 C-53.47886719 44.25425781 -53.63742188 43.44601563 -53.80078125 42.61328125 C-53.91035156 41.99839844 -54.01992188 41.38351563 -54.1328125 40.75 C-51.86372414 42.86169495 -50.30936938 44.94882471 -48.7578125 47.625 C-44.1423977 55.11648931 -37.94454156 59.84346584 -29.8203125 63.0625 C-20.40793789 64.8173495 -11.75933371 64.1306553 -3.1328125 59.75 C4.83716347 53.99616531 10.93721761 47.62588196 12.8671875 37.75 C13.67142445 26.54341961 12.95278978 17.48143561 5.6796875 8.5 C-1.72838675 0.68036607 -9.42283007 -3.20567987 -20.1328125 -3.5 C-30.41840306 -3.21734255 -36.98114252 0.43697397 -44.8203125 7 C-48.12874273 10.93434946 -50.60901857 15.28349184 -53.1328125 19.75 C-54.06578597 17.25457699 -54.3100033 16.15985003 -53.234375 13.671875 C-40.5409003 -4.99895022 -20.09496924 -11.77727135 0 0 Z " fill="#E6DDC9" transform="translate(93.1328125,31.25)"/>
<path d="M0 0 C1.51400391 0.01740234 1.51400391 0.01740234 3.05859375 0.03515625 C4.07050781 0.04417969 5.08242187 0.05320312 6.125 0.0625 C7.29869141 0.07990234 7.29869141 0.07990234 8.49609375 0.09765625 C8.49609375 0.75765625 8.49609375 1.41765625 8.49609375 2.09765625 C9.058125 1.77023438 9.62015625 1.4428125 10.19921875 1.10546875 C12.76469339 -0.02019869 14.46451652 -0.10915485 17.24609375 -0.02734375 C18.0453125 -0.00929688 18.84453125 0.00875 19.66796875 0.02734375 C20.27125 0.05054687 20.87453125 0.07375 21.49609375 0.09765625 C22.62109375 4.84765625 22.62109375 4.84765625 21.49609375 7.09765625 C21.60808159 8.62349062 21.78211103 10.14525586 21.99609375 11.66015625 C22.20363123 13.13414404 22.37993037 14.6136691 22.49609375 16.09765625 C21.49609375 17.09765625 21.49609375 17.09765625 19.24609375 17.23046875 C18.33859375 17.22789063 17.43109375 17.2253125 16.49609375 17.22265625 C15.13484375 17.22652344 15.13484375 17.22652344 13.74609375 17.23046875 C11.49609375 17.09765625 11.49609375 17.09765625 10.49609375 16.09765625 C10.26181597 14.08171043 10.08273251 12.05918225 9.93359375 10.03515625 C9.84980469 8.93042969 9.76601562 7.82570313 9.6796875 6.6875 C9.61910156 5.83285156 9.55851563 4.97820312 9.49609375 4.09765625 C9.16609375 4.75765625 8.83609375 5.41765625 8.49609375 6.09765625 C7.50609375 6.09765625 6.51609375 6.09765625 5.49609375 6.09765625 C5.49609375 9.39765625 5.49609375 12.69765625 5.49609375 16.09765625 C3.83994718 16.47984392 2.17152351 16.81160727 0.49609375 17.09765625 C-0.50390625 16.09765625 -0.50390625 16.09765625 -0.6015625 13.8125 C-0.58996094 12.89597656 -0.57835938 11.97945312 -0.56640625 11.03515625 C-0.55738281 10.11605469 -0.54835938 9.19695312 -0.5390625 8.25 C-0.52746094 7.53972656 -0.51585938 6.82945313 -0.50390625 6.09765625 C-1.49390625 6.09765625 -2.48390625 6.09765625 -3.50390625 6.09765625 C-3.54662725 4.4315372 -3.54454457 2.7638274 -3.50390625 1.09765625 C-2.50390625 0.09765625 -2.50390625 0.09765625 0 0 Z " fill="#0D0C0A" transform="translate(121.50390625,106.90234375)"/>
<path d="M0 0 C1.19206055 -0.01063477 1.19206055 -0.01063477 2.40820312 -0.02148438 C8.097024 0.0386903 13.39932097 0.94224274 18.5625 3.4375 C19.0575 4.4275 19.0575 4.4275 19.5625 5.4375 C16.62021394 4.88582136 13.81559768 4.21858036 10.9375 3.375 C2.66058495 1.30187439 -5.29479403 2.30170827 -13.4375 4.4375 C-13.4375 5.0975 -13.4375 5.7575 -13.4375 6.4375 C-15.23046875 7.76953125 -15.23046875 7.76953125 -17.625 9.25 C-25.69277053 14.51926263 -30.95218921 21.15700133 -34.1015625 30.3828125 C-35.27508358 37.56039493 -34.76386737 45.30827538 -33.4375 52.4375 C-32.7775 52.4375 -32.1175 52.4375 -31.4375 52.4375 C-31.1075 54.4175 -30.7775 56.3975 -30.4375 58.4375 C-29.4475 58.7675 -28.4575 59.0975 -27.4375 59.4375 C-26.37075352 60.64855435 -25.35561835 61.90570893 -24.375 63.1875 C-16.89016633 71.99596742 -4.61718162 75.42116531 6.5625 76.4375 C6.5625 76.7675 6.5625 77.0975 6.5625 77.4375 C-4.76068118 77.80875184 -13.38311252 76.57850749 -22.4375 69.4375 C-23.2728125 68.82003906 -24.108125 68.20257813 -24.96875 67.56640625 C-32.19864639 61.33176459 -36.6943495 51.83360427 -37.78515625 42.4453125 C-38.31772732 31.05648493 -34.67775669 21.06234882 -27.3203125 12.3671875 C-24.30410119 9.27588379 -21.12971009 6.67807193 -17.4375 4.4375 C-16.87522705 4.09404541 -16.3129541 3.75059082 -15.73364258 3.39672852 C-10.41271212 0.41120208 -6.04000834 -0.15112208 0 0 Z " fill="#191612" transform="translate(71.4375,22.5625)"/>
<path d="M0 0 C0.99 0.33 1.98 0.66 3 1 C2.67 7.6 2.34 14.2 2 21 C3.32 21 4.64 21 6 21 C6.45375 22.0725 6.9075 23.145 7.375 24.25 C7.65601563 24.889375 7.93703125 25.52875 8.2265625 26.1875 C9 28 9 28 9.75 30.25 C11.807775 33.130885 14.7292868 33.78862474 18 35 C18 36.65 18 38.3 18 40 C18.7734375 39.7525 18.7734375 39.7525 19.5625 39.5 C22.73363876 38.84951 25.77218334 38.9379266 29 39 C29 41.31 29 43.62 29 46 C20.46710352 45.46669397 14.65890843 41.28767603 9 35 C5.99524091 31.55336458 3.92816689 28.1455588 2 24 C1.34 24.66 0.68 25.32 0 26 C-3.13487795 17.57501552 -3.18325437 8.40025459 0 0 Z " fill="#8F6F30" transform="translate(38,49)"/>
<path d="M0 0 C1.4370809 -0.05422947 2.87475462 -0.09289723 4.3125 -0.125 C5.11300781 -0.14820312 5.91351563 -0.17140625 6.73828125 -0.1953125 C9 0 9 0 12 2 C12.6875 5.3125 12.6875 5.3125 13 9 C13.12375 9.9075 13.2475 10.815 13.375 11.75 C13 14 13 14 10.9375 15.8125 C7.42356691 17.23302614 4.75812331 17.28908641 1 17 C0 16 0 16 -0.09765625 12.40234375 C-0.0909822 10.91403133 -0.07902183 9.42573568 -0.0625 7.9375 C-0.05798828 7.17888672 -0.05347656 6.42027344 -0.04882812 5.63867188 C-0.0370068 3.75908129 -0.01907078 1.87953101 0 0 Z " fill="#272014" transform="translate(3,107)"/>
<path d="M0 0 C2.88341657 0.06729698 4.10029116 0.26453514 6.6875 1.6875 C8.96890363 5.67995635 8.86189911 9.81127801 8.1875 14.3125 C5.82296807 16.67703193 4.92880071 16.67902704 1.6875 17 C0.8934375 17.08636719 0.099375 17.17273438 -0.71875 17.26171875 C-2.8125 17.3125 -2.8125 17.3125 -4.8125 16.3125 C-4.83935095 13.83326199 -4.85926547 11.3543116 -4.875 8.875 C-4.88756836 7.81442383 -4.88756836 7.81442383 -4.90039062 6.73242188 C-4.90903588 4.92556441 -4.86470011 3.11862397 -4.8125 1.3125 C-3.8125 0.3125 -3.8125 0.3125 0 0 Z " fill="#272018" transform="translate(100.8125,106.6875)"/>
<path d="M0 0 C3 2 3 2 3.6875 4.625 C4.04191678 8.45270125 4.0662568 12.15710536 4 16 C2 17 2 17 -0.375 16.5 C-3.03845204 15.9926758 -4.46663295 16.15554432 -7 17 C-9.17557545 14.47633247 -9.98993167 12.58983636 -10.046875 9.25390625 C-9.82773078 6.4452078 -9.61385543 3.75081081 -9 1 C-5.98131566 -0.50934217 -3.32702771 -0.17510672 0 0 Z " fill="#5F4C38" transform="translate(70,107)"/>
<path d="M0 0 C0.66 0 1.32 0 2 0 C3.38529821 5.45461169 4.2396943 10.36718401 4 16 C2.35 16.33 0.7 16.66 -1 17 C-0.67 17.66 -0.34 18.32 0 19 C-2.96175123 18.38722388 -4.38058783 17.74627478 -7 16 C-7.33 16.66 -7.66 17.32 -8 18 C-8.99 17.67 -9.98 17.34 -11 17 C-11.94921875 14.6015625 -11.94921875 14.6015625 -12.6875 11.625 C-12.93886719 10.64789063 -13.19023438 9.67078125 -13.44921875 8.6640625 C-14 6 -14 6 -14 3 C-12.68 3.33 -11.36 3.66 -10 4 C-10 3.34 -10 2.68 -10 2 C-9.34 2 -8.68 2 -8 2 C-8 2.66 -8 3.32 -8 4 C-7.34 4 -6.68 4 -6 4 C-5.67 3.01 -5.34 2.02 -5 1 C-4.34 1 -3.68 1 -3 1 C-2.79503906 1.85464844 -2.59007813 2.70929687 -2.37890625 3.58984375 C-2.10949219 4.69457031 -1.84007813 5.79929687 -1.5625 6.9375 C-1.16224609 8.59072266 -1.16224609 8.59072266 -0.75390625 10.27734375 C-0.27004275 12.89421254 -0.27004275 12.89421254 1 14 C0.67 9.38 0.34 4.76 0 0 Z " fill="#CAAC72" transform="translate(75,56)"/>
<path d="M0 0 C0.969375 0.185625 1.93875 0.37125 2.9375 0.5625 C3.948125 0.706875 4.95875 0.85125 6 1 C6.33 0.67 6.66 0.34 7 0 C8.66617115 -0.04063832 10.33388095 -0.042721 12 0 C12.20086443 3.71599191 12.1519437 4.77208445 10 8 C10.495 8.763125 10.99 9.52625 11.5 10.3125 C13 13 13 13 13 16 C12.01 16.33 11.02 16.66 10 17 C9.071875 16.4740625 9.071875 16.4740625 8.125 15.9375 C5.92882719 14.68848842 5.92882719 14.68848842 3.25 15.875 C2.5075 16.24625 1.765 16.6175 1 17 C0 16 0 16 -0.09765625 13.49609375 C-0.08605469 12.48675781 -0.07445312 11.47742188 -0.0625 10.4375 C-0.05347656 9.42558594 -0.04445312 8.41367188 -0.03515625 7.37109375 C-0.02355469 6.58863281 -0.01195312 5.80617188 0 5 C-0.66 4.67 -1.32 4.34 -2 4 C-1.34 2.68 -0.68 1.36 0 0 Z " fill="#8C754A" transform="translate(33,107)"/>
<path d="M0 0 C1.98 0 3.96 0 6 0 C6.70246995 1.8903376 7.38640849 3.78756828 8.0625 5.6875 C8.44535156 6.74324219 8.82820313 7.79898438 9.22265625 8.88671875 C10.0233052 12.09333792 9.9237249 13.8686307 9 17 C6 17 6 17 4 16 C4 15.34 4 14.68 4 14 C3.34 14 2.68 14 2 14 C2 14.66 2 15.32 2 16 C1.34 16 0.68 16 0 16 C-0.33 16.66 -0.66 17.32 -1 18 C-1.99 17.67 -2.98 17.34 -4 17 C-4.56131481 10.54487966 -2.63463787 5.84560277 0 0 Z " fill="#8F784B" transform="translate(21,107)"/>
<path d="M0 0 C2.3828125 -0.29296875 2.3828125 -0.29296875 5.125 -0.1875 C6.03507812 -0.16042969 6.94515625 -0.13335937 7.8828125 -0.10546875 C8.58148438 -0.07066406 9.28015625 -0.03585938 10 0 C10 5.33333333 10 10.66666667 10 16 C5.93720525 16.85035239 3.02659396 16.92604802 -1 16 C-1.22197585 13.89722877 -1.42713637 11.79267698 -1.625 9.6875 C-1.74101563 8.51574219 -1.85703125 7.34398438 -1.9765625 6.13671875 C-2 3 -2 3 0 0 Z " fill="#655539" transform="translate(49,107)"/>
<path d="M0 0 C0.33 0.33 0.66 0.66 1 1 C0.30232558 7.39534884 0.30232558 7.39534884 -1 10 C-0.34 10.33 0.32 10.66 1 11 C1 12.65 1 14.3 1 16 C-0.258125 16.185625 -1.51625 16.37125 -2.8125 16.5625 C-3.52019531 16.66691406 -4.22789063 16.77132812 -4.95703125 16.87890625 C-7 17 -7 17 -10 16 C-9.25 9.25 -9.25 9.25 -7 7 C-7.99 6.67 -8.98 6.34 -10 6 C-10 4.35 -10 2.7 -10 1 C-6.74696956 -0.62651522 -3.60774398 -0.11453156 0 0 Z " fill="#0E0C08" transform="translate(86,107)"/>
<path d="M0 0 C0.66 0 1.32 0 2 0 C2 0.99 2 1.98 2 3 C5.83225427 3.08912219 9.26562152 2.87867729 13 2 C13 2.66 13 3.32 13 4 C17.37934119 3.48041715 21.68803391 2.94324258 26 2 C25.01 2.495 25.01 2.495 24 3 C24.33 3.99 24.66 4.98 25 6 C22.60676536 8.86249633 20.76796355 9.51599394 17.125 10.125 C15.86042969 10.34542969 15.86042969 10.34542969 14.5703125 10.5703125 C13.72210938 10.71210937 12.87390625 10.85390625 12 11 C10.33227576 11.32800117 8.66527504 11.65978252 7 12 C5.875 7.25 5.875 7.25 7 5 C3.7 5.33 0.4 5.66 -3 6 C-2.34 5.67 -1.68 5.34 -1 5 C-0.34444881 2.47266765 -0.34444881 2.47266765 0 0 Z " fill="#8F6D18" transform="translate(60,83)"/>
<path d="M0 0 C2.475 0.495 2.475 0.495 5 1 C4.67 1.763125 4.34 2.52625 4 3.3125 C2.82563314 5.99069135 2.82563314 5.99069135 3 9 C2.34 8.67 1.68 8.34 1 8 C1 11.63 1 15.26 1 19 C0.67 19 0.34 19 0 19 C-0.495 16.525 -0.495 16.525 -1 14 C-1.33 15.65 -1.66 17.3 -2 19 C-2.33 19 -2.66 19 -3 19 C-3 14.05 -3 9.1 -3 4 C-4.340625 4.33 -5.68125 4.66 -7.0625 5 C-11.12341074 5.91163302 -14.83048298 6.08018302 -19 6 C-20.36125 6.309375 -20.36125 6.309375 -21.75 6.625 C-24 7 -24 7 -27 5 C-25.865625 4.690625 -24.73125 4.38125 -23.5625 4.0625 C-20.21224901 3.37075469 -20.21224901 3.37075469 -19 2 C-17.45905702 1.95276803 -15.91621658 1.96275005 -14.375 2 C-11.17331694 2.04128245 -8.15889323 1.96398221 -5 1.4375 C-2 1 -2 1 0 2 C0 1.34 0 0.68 0 0 Z " fill="#927025" transform="translate(89,47)"/>
<path d="M0 0 C0.66 1.32 1.32 2.64 2 4 C-0.9770577 4.96496793 -3.95700441 5.92070878 -6.9375 6.875 C-7.76830078 7.14441406 -8.59910156 7.41382812 -9.45507812 7.69140625 C-14.92810512 9.43766389 -20.37482684 10.83069054 -26 12 C-25.49609375 9.17578125 -25.49609375 9.17578125 -24 6 C-21.22928199 4.73071569 -18.96846484 3.91590807 -16.0625 3.1875 C-15.33353516 2.98447266 -14.60457031 2.78144531 -13.85351562 2.57226562 C-11.90686421 2.03162825 -9.95370516 1.51456453 -8 1 C-5.07175348 0.02391783 -3.04386724 -0.08226668 0 0 Z " fill="#F1DEA0" transform="translate(88,74)"/>
<path d="M0 0 C2.97 0 5.94 0 9 0 C10.15837626 4.05431692 9.83691257 6.21812119 8 10 C6.68 10 5.36 10 4 10 C4 10.66 4 11.32 4 12 C5.32 12 6.64 12 8 12 C8 12.99 8 13.98 8 15 C5.03 15 2.06 15 -1 15 C-1.02693575 12.87506859 -1.04636628 10.75004088 -1.0625 8.625 C-1.07410156 7.44164063 -1.08570313 6.25828125 -1.09765625 5.0390625 C-1 2 -1 2 0 0 Z " fill="#383025" transform="translate(134,107)"/>
<path d="M0 0 C2.26908836 2.11169495 3.82344312 4.19882471 5.375 6.875 C9.9904148 14.36648931 16.18827094 19.09346584 24.3125 22.3125 C33.75399156 24.07277809 42.3082324 23.28699649 51 19 C54.27144443 16.57190244 57.17877072 13.93521834 60 11 C60.66 11.66 61.32 12.32 62 13 C60.71372289 14.17260611 59.42080217 15.3379283 58.125 16.5 C57.40570313 17.1496875 56.68640625 17.799375 55.9453125 18.46875 C54 20 54 20 52 20 C52 20.66 52 21.32 52 22 C41.55259347 26.31244299 29.07905236 26.99226806 18.4375 23 C12.87138088 20.32398119 9.01056623 16.61939917 5 12 C4.45859375 11.52175781 3.9171875 11.04351562 3.359375 10.55078125 C1.6047269 8.54907063 1.30201348 6.91068694 0.8125 4.3125 C0.65394531 3.50425781 0.49539062 2.69601563 0.33203125 1.86328125 C0.22246094 1.24839844 0.11289062 0.63351563 0 0 Z " fill="#D9CDB6" transform="translate(39,72)"/>
<path d="M0 0 C0.97714065 2.54056569 0.99124953 4.04812761 0.5 6.75 C-3.30254272 14.98884256 -11.04483131 21.81306911 -19 26 C-22.62932527 27.20701934 -26.13561527 27.13311502 -29.9375 27.125 C-31.14277344 27.12757812 -32.34804687 27.13015625 -33.58984375 27.1328125 C-36.53222592 27.01821801 -39.14489223 26.68262539 -42 26 C-42 25.67 -42 25.34 -42 25 C-40.91460937 24.95101562 -39.82921875 24.90203125 -38.7109375 24.8515625 C-37.26560216 24.77648014 -35.82029081 24.70093472 -34.375 24.625 C-33.66214844 24.5940625 -32.94929688 24.563125 -32.21484375 24.53125 C-27.79996899 24.28822937 -24.1989763 23.47986844 -20 22 C-18.68 22 -17.36 22 -16 22 C-16 21.34 -16 20.68 -16 20 C-15.154375 19.484375 -14.30875 18.96875 -13.4375 18.4375 C-6.80237002 14.22372077 -2.62125062 7.246987 0 0 Z " fill="#393229" transform="translate(107,72)"/>
<path d="M0 0 C2 2 2 2 2 6 C2.99 6.33 3.98 6.66 5 7 C6.06674648 8.21105435 7.08188165 9.46820893 8.0625 10.75 C15.54733367 19.55846742 27.82031838 22.98366531 39 24 C39 24.33 39 24.66 39 25 C27.63204916 25.3727197 19.11582839 24.10444116 10 17 C8.63875 16.0409375 8.63875 16.0409375 7.25 15.0625 C3.24932429 11.39521393 0.18998502 8.08983521 -0.3125 2.5625 C-0.209375 1.716875 -0.10625 0.87125 0 0 Z " fill="#363025" transform="translate(39,75)"/>
<path d="M0 0 C1.65 0 3.3 0 5 0 C5.33 6.93 5.66 13.86 6 21 C4.02 21.33 2.04 21.66 0 22 C0.020625 20.88625 0.04125 19.7725 0.0625 18.625 C0.07130682 13.71079586 -0.44028782 8.8774919 -1 4 C-0.01 4 0.98 4 2 4 C2 4.99 2 5.98 2 7 C2.66 7 3.32 7 4 7 C4 5.02 4 3.04 4 1 C2.68 0.67 1.36 0.34 0 0 Z " fill="#DBC184" transform="translate(81,51)"/>
<path d="M0 0 C0.99 0.33 1.98 0.66 3 1 C2.98952637 1.59538574 2.97905273 2.19077148 2.96826172 2.80419922 C2.92676051 5.49442343 2.90069296 8.18458037 2.875 10.875 C2.85824219 11.81214844 2.84148438 12.74929687 2.82421875 13.71484375 C2.81777344 14.61074219 2.81132813 15.50664063 2.8046875 16.4296875 C2.79421387 17.25710449 2.78374023 18.08452148 2.77294922 18.93701172 C2.80697743 21.22398157 2.80697743 21.22398157 5 23 C4.34 23.99 3.68 24.98 3 26 C2.67 25.34 2.34 24.68 2 24 C1.34 24.66 0.68 25.32 0 26 C-3.13487795 17.57501552 -3.18325437 8.40025459 0 0 Z " fill="#A99979" transform="translate(38,49)"/>
<path d="M0 0 C0.969375 0.185625 1.93875 0.37125 2.9375 0.5625 C3.948125 0.706875 4.95875 0.85125 6 1 C6.33 0.67 6.66 0.34 7 0 C8.66617115 -0.04063832 10.33388095 -0.042721 12 0 C12.20086443 3.71599191 12.1519437 4.77208445 10 8 C10.495 8.763125 10.99 9.52625 11.5 10.3125 C13 13 13 13 13 16 C12.01 16.33 11.02 16.66 10 17 C9.071875 16.4740625 9.071875 16.4740625 8.125 15.9375 C5.92882719 14.68848842 5.92882719 14.68848842 3.25 15.875 C2.5075 16.24625 1.765 16.6175 1 17 C0 16 0 16 -0.09765625 13.49609375 C-0.08605469 12.48675781 -0.07445312 11.47742188 -0.0625 10.4375 C-0.05347656 9.42558594 -0.04445312 8.41367188 -0.03515625 7.37109375 C-0.02355469 6.58863281 -0.01195312 5.80617188 0 5 C-0.66 4.67 -1.32 4.34 -2 4 C-1.34 2.68 -0.68 1.36 0 0 Z M1 2 C1 6.29 1 10.58 1 15 C1.99 15 2.98 15 4 15 C4 14.01 4 13.02 4 12 C4.99 12 5.98 12 7 12 C7.33 12.99 7.66 13.98 8 15 C9.32 14.67 10.64 14.34 12 14 C11.484375 13.319375 10.96875 12.63875 10.4375 11.9375 C8.60792912 8.19881168 9.13821128 5.99556587 10 2 C7.24358584 2.49756092 7.24358584 2.49756092 5 4 C4.67 3.34 4.34 2.68 4 2 C3.01 2 2.02 2 1 2 Z " fill="#0C0B09" transform="translate(33,107)"/>
<path d="M0 0 C0.99 0.33 1.98 0.66 3 1 C4.07957377 4.23872132 4.13326784 6.66028205 4.125 10.0625 C4.12757812 11.12597656 4.13015625 12.18945312 4.1328125 13.28515625 C4 16 4 16 3 18 C1.35 17.67 -0.3 17.34 -2 17 C-2 11.72 -2 6.44 -2 1 C-1.34 0.67 -0.68 0.34 0 0 Z " fill="#0D0B08" transform="translate(113,106)"/>
<path d="M0 0 C0 1.98 0 3.96 0 6 C-0.66 6 -1.32 6 -2 6 C-2 5.01 -2 4.02 -2 3 C-2.99 3 -3.98 3 -5 3 C-4.855625 3.64066406 -4.71125 4.28132813 -4.5625 4.94140625 C-3.45964509 10.08040377 -2.77160689 14.74695843 -3 20 C-5.75924185 21.80411967 -6.88972103 22.0127245 -10.25 21.625 C-11.1575 21.41875 -12.065 21.2125 -13 21 C-13 20.67 -13 20.34 -13 20 C-10.69 20 -8.38 20 -6 20 C-6.15597656 18.87980469 -6.31195313 17.75960937 -6.47265625 16.60546875 C-6.66962934 15.13286041 -6.86622423 13.66020144 -7.0625 12.1875 C-7.16626953 11.44951172 -7.27003906 10.71152344 -7.37695312 9.95117188 C-7.82086566 6.56825221 -8.09314992 4.27944975 -7 1 C-4.53721199 -0.231394 -2.7204945 -0.07159196 0 0 Z " fill="#F2E0A4" transform="translate(85,52)"/>
<path d="M0 0 C1.98 0 3.96 0 6 0 C6.70246995 1.8903376 7.38640849 3.78756828 8.0625 5.6875 C8.44535156 6.74324219 8.82820313 7.79898438 9.22265625 8.88671875 C10.0233052 12.09333792 9.9237249 13.8686307 9 17 C6 17 6 17 4 16 C4 15.34 4 14.68 4 14 C3.34 14 2.68 14 2 14 C2 14.66 2 15.32 2 16 C1.34 16 0.68 16 0 16 C-0.33 16.66 -0.66 17.32 -1 18 C-1.99 17.67 -2.98 17.34 -4 17 C-4.56131481 10.54487966 -2.63463787 5.84560277 0 0 Z M1 2 C0.32694982 3.60149886 -0.33822227 5.20631029 -1 6.8125 C-1.37125 7.70582031 -1.7425 8.59914063 -2.125 9.51953125 C-3.16633237 12.0331433 -3.16633237 12.0331433 -3 15 C-1.68 15 -0.36 15 1 15 C1 14.34 1 13.68 1 13 C3.97 13.495 3.97 13.495 7 14 C7.37552165 7.68731397 7.37552165 7.68731397 5 2 C3.68 2 2.36 2 1 2 Z " fill="#17140F" transform="translate(21,107)"/>
<path d="M0 0 C3 2 3 2 3.6875 4.625 C4.04191678 8.45270125 4.0662568 12.15710536 4 16 C2 17 2 17 -0.375 16.5 C-3.03845204 15.9926758 -4.46663295 16.15554432 -7 17 C-9.17557545 14.47633247 -9.98993167 12.58983636 -10.046875 9.25390625 C-9.82773078 6.4452078 -9.61385543 3.75081081 -9 1 C-5.98131566 -0.50934217 -3.32702771 -0.17510672 0 0 Z M-8 2 C-8 5.96 -8 9.92 -8 14 C-6.68 14.33 -5.36 14.66 -4 15 C-4 13.68 -4 12.36 -4 11 C-3.34 11 -2.68 11 -2 11 C-1.34 12.32 -0.68 13.64 0 15 C0.66 15 1.32 15 2 15 C2.05391993 13.20866022 2.09275571 11.41686101 2.125 9.625 C2.14820312 8.62726563 2.17140625 7.62953125 2.1953125 6.6015625 C2.27216848 3.83737827 2.27216848 3.83737827 0 2 C-2.68839385 1.73008094 -5.29141936 1.91262643 -8 2 Z " fill="#0D0B09" transform="translate(70,107)"/>
<path d="M0 0 C2.97 0 5.94 0 9 0 C8.43454163 3.95820859 7.19097652 6.6659053 5 10 C6.32 10 7.64 10 9 10 C9 10.99 9 11.98 9 13 C6.03 13 3.06 13 0 13 C1.05875074 9.59687262 2.00902154 6.98646769 4 4 C2.68 3.67 1.36 3.34 0 3 C0 2.01 0 1.02 0 0 Z " fill="#6D5C37" transform="translate(77,109)"/>
<path d="M0 0 C2.3828125 -0.29296875 2.3828125 -0.29296875 5.125 -0.1875 C6.03507812 -0.16042969 6.94515625 -0.13335937 7.8828125 -0.10546875 C8.58148438 -0.07066406 9.28015625 -0.03585938 10 0 C10 5.33333333 10 10.66666667 10 16 C5.93720525 16.85035239 3.02659396 16.92604802 -1 16 C-1.22197585 13.89722877 -1.42713637 11.79267698 -1.625 9.6875 C-1.74101563 8.51574219 -1.85703125 7.34398438 -1.9765625 6.13671875 C-2 3 -2 3 0 0 Z M0 2 C0 6.29 0 10.58 0 15 C2.97 15 5.94 15 9 15 C8.67 14.01 8.34 13.02 8 12 C6.35 12 4.7 12 3 12 C3 11.34 3 10.68 3 10 C4.65 10 6.3 10 8 10 C8 9.01 8 8.02 8 7 C6.35 7 4.7 7 3 7 C3 6.34 3 5.68 3 5 C4.98 5 6.96 5 9 5 C8.67 3.68 8.34 2.36 8 1 C3.85906302 0.79029441 3.85906302 0.79029441 0 2 Z " fill="#0A0806" transform="translate(49,107)"/>
<path d="M0 0 C5.68022395 0.94670399 9.4195079 2.56463093 14 6 C13.01 6.99 12.02 7.98 11 9 C10.01 8.67 9.02 8.34 8 8 C7.67 8.99 7.34 9.98 7 11 C4.03 10.67 1.06 10.34 -2 10 C-2 9.67 -2 9.34 -2 9 C0.64 9 3.28 9 6 9 C6.04289755 7.06890419 6.04289755 7.06890419 5 5 C1.51202512 3.20728609 1.51202512 3.20728609 -2 2 C-1.34 1.34 -0.68 0.68 0 0 Z " fill="#947637" transform="translate(80,28)"/>
<path d="M0 0 C0.66 0.33 1.32 0.66 2 1 C2.29535506 2.96903371 2.58172087 4.94083576 2.78125 6.921875 C3.03359311 9.31913458 3.48512606 11.64629057 4 14 C2.02 14.99 2.02 14.99 0 16 C-1.75734451 11.02638346 -3.32584613 6.2584002 -4 1 C-2.68 1.33 -1.36 1.66 0 2 C0 1.34 0 0.68 0 0 Z " fill="#D3B77D" transform="translate(65,58)"/>
<path d="M0 0 C0.33 0.66 0.66 1.32 1 2 C-3.70175423 6.86967403 -9.62214459 7.6572936 -16 9 C-15.4453125 6.1171875 -15.4453125 6.1171875 -14 3 C-10.7421875 1.7578125 -10.7421875 1.7578125 -6.875 1.125 C-5.59367187 0.90070313 -4.31234375 0.67640625 -2.9921875 0.4453125 C-1.51105469 0.22488281 -1.51105469 0.22488281 0 0 Z " fill="#FDF2B4" transform="translate(78,77)"/>
<path d="M0 0 C1.98 0 3.96 0 6 0 C6 0.99 6 1.98 6 3 C6.928125 2.773125 7.85625 2.54625 8.8125 2.3125 C12 2 12 2 13.875 3.4375 C14.431875 4.2109375 14.431875 4.2109375 15 5 C13.8125 6.5625 13.8125 6.5625 12 8 C9.5 7.625 9.5 7.625 7 7 C6.01 7.33 5.02 7.66 4 8 C4 7.34 4 6.68 4 6 C3.34 6 2.68 6 2 6 C2.33 4.68 2.66 3.36 3 2 C2.01 2 1.02 2 0 2 C0 1.34 0 0.68 0 0 Z " fill="#FDF3B3" transform="translate(53,52)"/>
<path d="M0 0 C4.60238615 3.06825743 7.33750217 6.74262048 9 12 C8.67 12.99 8.34 13.98 8 15 C7.96079185 16.99961564 7.95556653 19.00049364 8 21 C6.4375 20 6.4375 20 5 18 C5.03273548 15.23385218 5.50595672 12.73969453 6 10 C4.35 10 2.7 10 1 10 C0 2.25 0 2.25 0 0 Z " fill="#8E7034" transform="translate(97,38)"/>
<path d="M0 0 C1.2065625 0.0309375 1.2065625 0.0309375 2.4375 0.0625 C2.7675 1.0525 3.0975 2.0425 3.4375 3.0625 C2.1175 3.0625 0.7975 3.0625 -0.5625 3.0625 C-0.5625 3.7225 -0.5625 4.3825 -0.5625 5.0625 C0.7575 5.0625 2.0775 5.0625 3.4375 5.0625 C3.4375 6.0525 3.4375 7.0425 3.4375 8.0625 C2.1175 8.0625 0.7975 8.0625 -0.5625 8.0625 C-0.5625 9.0525 -0.5625 10.0425 -0.5625 11.0625 C0.4275 11.3925 1.4175 11.7225 2.4375 12.0625 C0.4575 12.0625 -1.5225 12.0625 -3.5625 12.0625 C-3.58937279 10.25007948 -3.60883715 8.43754767 -3.625 6.625 C-3.63660156 5.61566406 -3.64820313 4.60632813 -3.66015625 3.56640625 C-3.52706167 0.15386128 -3.42090834 0.08343679 0 0 Z " fill="#857257" transform="translate(138.5625,108.9375)"/>
<path d="M0 0 C2.64 0 5.28 0 8 0 C8 0.99 8 1.98 8 3 C6.68 3 5.36 3 4 3 C3.67 5.97 3.34 8.94 3 12 C2.01 12 1.02 12 0 12 C0 8.04 0 4.08 0 0 Z " fill="#6D5A41" transform="translate(62,109)"/>
<path d="M0 0 C0 0.66 0 1.32 0 2 C0.99 2.33 1.98 2.66 3 3 C2.67 3.66 2.34 4.32 2 5 C1.01 5.33 0.02 5.66 -1 6 C-1 6.99 -1 7.98 -1 9 C-1.99 9.66 -2.98 10.32 -4 11 C-3.67 9.02 -3.34 7.04 -3 5 C-5.31 5 -7.62 5 -10 5 C-7.70817629 1.38133099 -4.43955904 -2.21977952 0 0 Z " fill="#95742D" transform="translate(78,31)"/>
<path d="M0 0 C2.31 0 4.62 0 7 0 C7 0.99 7 1.98 7 3 C6.34 3 5.68 3 5 3 C5 6.3 5 9.6 5 13 C4.01 13 3.02 13 2 13 C1.92652344 12.04287109 1.92652344 12.04287109 1.8515625 11.06640625 C1.77679688 10.24011719 1.70203125 9.41382812 1.625 8.5625 C1.55539063 7.73878906 1.48578125 6.91507812 1.4140625 6.06640625 C1.27742188 5.38449219 1.14078125 4.70257813 1 4 C0.34 3.67 -0.32 3.34 -1 3 C-0.67 2.01 -0.34 1.02 0 0 Z " fill="#746144" transform="translate(121,109)"/>
<path d="M0 0 C2.97 0 5.94 0 9 0 C9 0.33 9 0.66 9 1 C6.69 1 4.38 1 2 1 C2 1.66 2 2.32 2 3 C3.65 3 5.3 3 7 3 C7 5.31 7 7.62 7 10 C6.01 10 5.02 10 4 10 C3.67 8.35 3.34 6.7 3 5 C2.34 5 1.68 5 1 5 C1 7.64 1 10.28 1 13 C0.67 13 0.34 13 0 13 C0 8.71 0 4.42 0 0 Z " fill="#4F422E" transform="translate(97,109)"/>
<path d="M0 0 C0.81275391 -0.01611328 1.62550781 -0.03222656 2.46289062 -0.04882812 C8.2491492 -0.05343135 13.56251136 0.748933 18.8125 3.3125 C19.3075 4.3025 19.3075 4.3025 19.8125 5.3125 C16.87021394 4.76082136 14.06559768 4.09358036 11.1875 3.25 C2.91058495 1.17687439 -5.04479403 2.17670827 -13.1875 4.3125 C-13.1875 3.6525 -13.1875 2.9925 -13.1875 2.3125 C-8.7652083 -0.18759711 -4.97462393 -0.01926655 0 0 Z " fill="#0C0C09" transform="translate(71.1875,22.6875)"/>
<path d="M0 0 C-1 3 -1 3 -4.1875 5.0625 C-8.33408901 7.84675997 -10.29589107 11.36150652 -12.640625 15.6953125 C-13.90709611 17.84249054 -15.1575915 19.34183235 -17 21 C-16.65085167 14.01703343 -12.69497696 9.64497738 -7.89453125 4.93359375 C-2.42272727 0 -2.42272727 0 0 0 Z " fill="#D2C6AF" transform="translate(56,30)"/>
<path d="M0 0 C0.99 0.66 1.98 1.32 3 2 C1.58521865 2.64995297 0.16808513 3.29478722 -1.25 3.9375 C-2.43335938 4.47697266 -2.43335938 4.47697266 -3.640625 5.02734375 C-7.81409791 6.74786487 -11.22980692 7.11631182 -15.75 7.0625 C-16.73484375 7.05347656 -17.7196875 7.04445313 -18.734375 7.03515625 C-19.48203125 7.02355469 -20.2296875 7.01195313 -21 7 C-20.360625 6.690625 -19.72125 6.38125 -19.0625 6.0625 C-17.06389179 5.1654837 -17.06389179 5.1654837 -16 4 C-14.25477017 3.78916687 -12.50301267 3.63124159 -10.75 3.5 C-7.08871046 3.22292944 -3.58837417 2.78577537 0 2 C0 1.34 0 0.68 0 0 Z " fill="#907444" transform="translate(88,89)"/>
<path d="M0 0 C2.97 0.33 5.94 0.66 9 1 C9 1.33 9 1.66 9 2 C7.02 2 5.04 2 3 2 C3 2.66 3 3.32 3 4 C3.99 4 4.98 4 6 4 C6 4.99 6 5.98 6 7 C4.68 6.67 3.36 6.34 2 6 C1.67 8.31 1.34 10.62 1 13 C3.64 13 6.28 13 9 13 C9 13.33 9 13.66 9 14 C6.03 14 3.06 14 0 14 C0 9.38 0 4.76 0 0 Z " fill="#554830" transform="translate(4,108)"/>
<path d="M0 0 C-0.99 0.33 -1.98 0.66 -3 1 C-3.73323796 3.01508358 -3.73323796 3.01508358 -4 5 C-4.66 5 -5.32 5 -6 5 C-5.67 5.99 -5.34 6.98 -5 8 C-6.65 7.67 -8.3 7.34 -10 7 C-10 5.02 -10 3.04 -10 1 C-6.42181037 -1.33958553 -4.07775191 -0.9267618 0 0 Z " fill="#8E6C18" transform="translate(58,38)"/>
<path d="M0 0 C1.65 0.33 3.3 0.66 5 1 C5.33 3.31 5.66 5.62 6 8 C4.35 6.35 2.7 4.7 1 3 C0.67 6.3 0.34 9.6 0 13 C-1.32 13 -2.64 13 -4 13 C-3.71517632 11.58194169 -3.42181856 10.16559621 -3.125 8.75 C-2.96257813 7.96109375 -2.80015625 7.1721875 -2.6328125 6.359375 C-2.00849925 4.03168856 -1.15161458 2.10968048 0 0 Z " fill="#5F543B" transform="translate(22,109)"/>
<path d="M0 0 C0.99 0 1.98 0 3 0 C2.773125 1.03125 2.54625 2.0625 2.3125 3.125 C1.96098535 7.4837817 2.76055351 9.32730775 5 13 C3.35 12.67 1.7 12.34 0 12 C0 11.34 0 10.68 0 10 C-0.99 9.67 -1.98 9.34 -3 9 C-2.34 8.67 -1.68 8.34 -1 8 C-1.20625 7.05125 -1.4125 6.1025 -1.625 5.125 C-1.74875 4.09375 -1.8725 3.0625 -2 2 C-1.34 1.34 -0.68 0.68 0 0 Z " fill="#564938" transform="translate(40,109)"/>
<path d="M0 0 C0.99 0 1.98 0 3 0 C3 4.62 3 9.24 3 14 C2.01 14 1.02 14 0 14 C0 9.38 0 4.76 0 0 Z " fill="#5F573E" transform="translate(112,108)"/>
<path d="M0 0 C0.33 0.99 0.66 1.98 1 3 C4.00847418 4.22520264 4.00847418 4.22520264 7 5 C7 6.32 7 7.64 7 9 C4.69 9.33 2.38 9.66 0 10 C0 6.7 0 3.4 0 0 Z " fill="#846F50" transform="translate(5,111)"/>
<path d="M0 0 C3.625 0.1875 3.625 0.1875 6.625 2.1875 C6.625 2.8475 6.625 3.5075 6.625 4.1875 C5.96113281 4.17589844 5.29726562 4.16429687 4.61328125 4.15234375 C-0.88478033 4.07133905 -0.88478033 4.07133905 -6.3125 4.8125 C-8.375 5.1875 -8.375 5.1875 -11.375 3.1875 C-10.240625 2.878125 -9.10625 2.56875 -7.9375 2.25 C-0.48343373 0.02685743 -0.48343373 0.02685743 0 0 Z " fill="#AB8543" transform="translate(73.375,48.8125)"/>
<path d="M0 0 C0 0.99 0 1.98 0 3 C-1.828125 4.5 -1.828125 4.5 -4.25 6 C-7.26892581 7.89422796 -10.17581179 9.82356138 -13 12 C-12.42859372 8.57156234 -11.62014837 6.5205026 -8.93359375 4.265625 C-2.60625 0 -2.60625 0 0 0 Z " fill="#38332C" transform="translate(58,26)"/>
<path d="M0 0 C0 0.33 0 0.66 0 1 C-7.49701701 3.436168 -14.12309743 4.41136629 -22 4 C-18.63818541 1.75879028 -16.06023848 1.16527367 -12.125 0.3125 C-10.91070312 0.04050781 -9.69640625 -0.23148437 -8.4453125 -0.51171875 C-5.21130167 -0.97005362 -3.10965938 -0.88087309 0 0 Z " fill="#AD8948" transform="translate(88,73)"/>
<path d="M0 0 C0.99 0.33 1.98 0.66 3 1 C2.01 1.495 2.01 1.495 1 2 C1 2.66 1 3.32 1 4 C2.918125 3.8453125 2.918125 3.8453125 4.875 3.6875 C5.59429687 3.62949219 6.31359375 3.57148437 7.0546875 3.51171875 C9.39519216 3.12606964 9.39519216 3.12606964 11 0 C10.67 1.98 10.34 3.96 10 6 C8.948125 5.979375 7.89625 5.95875 6.8125 5.9375 C3.67295096 5.98896802 1.03116604 6.26517187 -2 7 C-2 5.02 -2 3.04 -2 1 C-1.34 0.67 -0.68 0.34 0 0 Z " fill="#EBD596" transform="translate(79,43)"/>
<path d="M0 0 C0.99 0 1.98 0 3 0 C4.33583899 4.84241633 5.25328119 8.93437617 5 14 C2 12 2 12 1.26953125 9.1796875 C1.11871094 8.08914062 0.96789062 6.99859375 0.8125 5.875 C0.65394531 4.77929688 0.49539062 3.68359375 0.33203125 2.5546875 C0.22246094 1.71164063 0.11289063 0.86859375 0 0 Z " fill="#F7E4A8" transform="translate(72,57)"/>
<path d="M0 0 C3.63 0 7.26 0 11 0 C10.67 1.32 10.34 2.64 10 4 C10 3.01 10 2.02 10 1 C7.6568787 1.25561323 5.32156597 1.59270772 3 2 C2.67 2.66 2.34 3.32 2 4 C2.99 4.33 3.98 4.66 5 5 C5 7.97 5 10.94 5 14 C4.67 14 4.34 14 4 14 C3.67 11.36 3.34 8.72 3 6 C2.01 5.67 1.02 5.34 0 5 C0 3.35 0 1.7 0 0 Z " fill="#2E2A23" transform="translate(118,108)"/>
<path d="M0 0 C0.33 1.65 0.66 3.3 1 5 C-3.55737263 4.56179109 -6.57653445 4.14958831 -10 1 C-3.375 -1.125 -3.375 -1.125 0 0 Z " fill="#927740" transform="translate(66,90)"/>
<path d="M0 0 C0.66 0 1.32 0 2 0 C2 0.99 2 1.98 2 3 C3.32 3.33 4.64 3.66 6 4 C6.33 3.01 6.66 2.02 7 1 C8.32 2.32 9.64 3.64 11 5 C8.03 5.66 5.06 6.32 2 7 C1.34 4.69 0.68 2.38 0 0 Z " fill="#FAEBB0" transform="translate(61,70)"/>
<path d="M0 0 C-2.376955 2.376955 -3.68411901 2.55211135 -6.9375 3.1875 C-7.81277344 3.36667969 -8.68804687 3.54585937 -9.58984375 3.73046875 C-12 4 -12 4 -15 3 C-10.27805833 -0.77755334 -5.74071928 -0.30096975 0 0 Z " fill="#8F7544" transform="translate(78,27)"/>
<path d="M0 0 C0.66 0.66 1.32 1.32 2 2 C0.71372289 3.17260611 -0.57919783 4.3379283 -1.875 5.5 C-2.59429687 6.1496875 -3.31359375 6.799375 -4.0546875 7.46875 C-6 9 -6 9 -8 9 C-8 9.66 -8 10.32 -8 11 C-9.32 10.34 -10.64 9.68 -12 9 C-10.948125 8.443125 -9.89625 7.88625 -8.8125 7.3125 C-5.26046527 5.2982364 -2.75086314 3.0009416 0 0 Z " fill="#CFC3AC" transform="translate(99,83)"/>
<path d="M0 0 C2 2 2 2 2.125 5.625 C2.08375 6.73875 2.0425 7.8525 2 9 C-2.53374042 10.03039555 -3.64467851 10.17766075 -8 8 C-5.03 8 -2.06 8 1 8 C0.67 7.34 0.34 6.68 0 6 C-2.52733235 5.34444881 -2.52733235 5.34444881 -5 5 C-5 4.34 -5 3.68 -5 3 C-3.35 3 -1.7 3 0 3 C0 2.01 0 1.02 0 0 Z " fill="#110F0B" transform="translate(57,114)"/>
<path d="M0 0 C5.31022184 -0.1831111 8.9588784 0.21460277 14 2 C16.6638527 2.44074654 19.31207432 2.72193872 22 3 C22 3.33 22 3.66 22 4 C15.17864049 4.22365113 8.61225361 3.83108562 2 2 C1.34 1.34 0.68 0.68 0 0 Z " fill="#110F0B" transform="translate(56,96)"/>
<path d="M0 0 C2 2 2 2 2 6 C2.99 6.33 3.98 6.66 5 7 C6.75 9.9375 6.75 9.9375 8 13 C7.67 13.66 7.34 14.32 7 15 C0.13785558 7.12253829 0.13785558 7.12253829 -0.4375 2.4375 C-0.293125 1.633125 -0.14875 0.82875 0 0 Z " fill="#2E2921" transform="translate(39,75)"/>
<path d="M0 0 C0.66 0 1.32 0 2 0 C2 3.96 2 7.92 2 12 C1.67 12 1.34 12 1 12 C0.67 10.35 0.34 8.7 0 7 C-0.33 8.65 -0.66 10.3 -1 12 C-1.33 12 -1.66 12 -2 12 C-2.05395478 10.37536158 -2.09277195 8.75021459 -2.125 7.125 C-2.14820312 6.22007813 -2.17140625 5.31515625 -2.1953125 4.3828125 C-2 2 -2 2 0 0 Z " fill="#977738" transform="translate(88,54)"/>
<path d="M0 0 C1.21816406 0.03480469 1.21816406 0.03480469 2.4609375 0.0703125 C3.68683594 0.09738281 3.68683594 0.09738281 4.9375 0.125 C5.87722656 0.15980469 5.87722656 0.15980469 6.8359375 0.1953125 C6.5059375 1.1853125 6.1759375 2.1753125 5.8359375 3.1953125 C2.5359375 3.5253125 -0.7640625 3.8553125 -4.1640625 4.1953125 C-4.1640625 4.8553125 -4.1640625 5.5153125 -4.1640625 6.1953125 C-4.8240625 6.1953125 -5.4840625 6.1953125 -6.1640625 6.1953125 C-3.41682632 0.30837783 -3.41682632 0.30837783 0 0 Z " fill="#E7CB91" transform="translate(68.1640625,35.8046875)"/>
<path d="M0 0 C0.33 0 0.66 0 1 0 C1.05411124 2.41696872 1.09372278 4.83271787 1.125 7.25 C1.15013672 8.27287109 1.15013672 8.27287109 1.17578125 9.31640625 C1.21528576 13.38537077 0.87550339 15.24899321 -1 19 C-1.66 16.03 -2.32 13.06 -3 10 C-2.01 10.33 -1.02 10.66 0 11 C0 7.37 0 3.74 0 0 Z " fill="#947946" transform="translate(106,54)"/>
<path d="M0 0 C1.98 0 3.96 0 6 0 C6.33 1.32 6.66 2.64 7 4 C4.36 4 1.72 4 -1 4 C-0.67 2.68 -0.34 1.36 0 0 Z " fill="#655B40" transform="translate(51,108)"/>
<path d="M0 0 C0.66 0 1.32 0 2 0 C2 0.66 2 1.32 2 2 C2.99 2 3.98 2 5 2 C4.67 3.98 4.34 5.96 4 8 C3.01 8.33 2.02 8.66 1 9 C0 2.25 0 2.25 0 0 Z " fill="#8E6D0D" transform="translate(53,63)"/>
<path d="M0 0 C2.97 0 5.94 0 9 0 C7.3653955 3.269209 4.28508407 3.73207281 1 5 C0.34 5 -0.32 5 -1 5 C-0.67 3.35 -0.34 1.7 0 0 Z " fill="#EFD79B" transform="translate(60,50)"/>
<path d="M0 0 C0.99 0 1.98 0 3 0 C3 3.20395416 2.25664978 5.09399739 1 8 C1.99 8.33 2.98 8.66 4 9 C1.69 9 -0.62 9 -3 9 C-3.33 8.01 -3.66 7.02 -4 6 C-2.68 6 -1.36 6 0 6 C0 4.02 0 2.04 0 0 Z " fill="#F3DC9D" transform="translate(73,40)"/>
<path d="M0 0 C4.60139641 1.48868707 7.50227094 3.74629855 11 7 C11 7.66 11 8.32 11 9 C7.88079662 8.66579964 7.04525746 8.05211466 4.9375 5.625 C4.298125 4.75875 3.65875 3.8925 3 3 C2.01769502 1.9826127 1.02530403 0.97403883 0 0 Z " fill="#1D1B16" transform="translate(91,28)"/>
<path d="M0 0 C2.31 0 4.62 0 7 0 C7 3.3 7 6.6 7 10 C4.8480563 6.77208445 4.79913557 5.71599191 5 2 C3.35 2 1.7 2 0 2 C0 1.34 0 0.68 0 0 Z " fill="#836C47" transform="translate(99,110)"/>
<path d="M0 0 C2.97 0 5.94 0 9 0 C9 0.99 9 1.98 9 3 C6.03 3 3.06 3 0 3 C0 2.01 0 1.02 0 0 Z " fill="#665741" transform="translate(77,109)"/>
<path d="M0 0 C2.97 0.495 2.97 0.495 6 1 C6.33 1.99 6.66 2.98 7 4 C4.03 4.66 1.06 5.32 -2 6 C-1.34 4.02 -0.68 2.04 0 0 Z " fill="#F6E1A5" transform="translate(64,80)"/>
<path d="M0 0 C0.99 0.495 0.99 0.495 2 1 C2.8515625 3.72265625 2.8515625 3.72265625 3.625 7.0625 C3.88539062 8.16722656 4.14578125 9.27195312 4.4140625 10.41015625 C4.60742188 11.26480469 4.80078125 12.11945313 5 13 C4.34 13 3.68 13 3 13 C2.49242138 11.58603098 1.99425075 10.16868271 1.5 8.75 C1.08234375 7.56664063 1.08234375 7.56664063 0.65625 6.359375 C0 4 0 4 0 0 Z " fill="#B08B52" transform="translate(66,59)"/>
<path d="M0 0 C3.39192363 0.59283621 5.2107757 1.76743189 7.75 4.0625 C8.67039062 4.88427734 8.67039062 4.88427734 9.609375 5.72265625 C10.29773438 6.35494141 10.29773438 6.35494141 11 7 C10.34 7.66 9.68 8.32 9 9 C7.49704815 7.69088122 5.99770689 6.37761608 4.5 5.0625 C3.6646875 4.33160156 2.829375 3.60070313 1.96875 2.84765625 C1.3190625 2.23792969 0.669375 1.62820312 0 1 C0 0.67 0 0.34 0 0 Z " fill="#D4C8B2" transform="translate(90,31)"/>
<path d="M0 0 C0.99 0 1.98 0 3 0 C2.91621094 0.68707031 2.83242188 1.37414062 2.74609375 2.08203125 C2.64425781 2.98308594 2.54242188 3.88414063 2.4375 4.8125 C2.33308594 5.70582031 2.22867188 6.59914063 2.12109375 7.51953125 C1.84341291 10.13375572 1.84341291 10.13375572 3 13 C2.01 13 1.02 13 0 13 C0 8.71 0 4.42 0 0 Z " fill="#605236" transform="translate(34,109)"/>
<path d="M0 0 C1.4540625 0.0309375 1.4540625 0.0309375 2.9375 0.0625 C2.9375 1.0525 2.9375 2.0425 2.9375 3.0625 C-0.6925 3.0625 -4.3225 3.0625 -8.0625 3.0625 C-6.7425 2.4025 -5.4225 1.7425 -4.0625 1.0625 C-3.0625 0.0625 -3.0625 0.0625 0 0 Z " fill="#9B7E44" transform="translate(75.0625,92.9375)"/>
<path d="M0 0 C1.50433594 0.01353516 1.50433594 0.01353516 3.0390625 0.02734375 C3.80992188 0.03894531 4.58078125 0.05054687 5.375 0.0625 C5.045 1.0525 4.715 2.0425 4.375 3.0625 C3.385 3.0625 2.395 3.0625 1.375 3.0625 C1.375 2.4025 1.375 1.7425 1.375 1.0625 C-0.935 1.7225 -3.245 2.3825 -5.625 3.0625 C-6.285 2.4025 -6.945 1.7425 -7.625 1.0625 C-4.98041621 -0.25979189 -2.94738699 -0.03427194 0 0 Z " fill="#977624" transform="translate(71.625,83.9375)"/>
<path d="M0 0 C-0.71027344 0.19335938 -1.42054687 0.38671875 -2.15234375 0.5859375 C-3.53099609 0.97652344 -3.53099609 0.97652344 -4.9375 1.375 C-5.85402344 1.63023438 -6.77054687 1.88546875 -7.71484375 2.1484375 C-10.16745087 2.76660104 -10.16745087 2.76660104 -11 5 C-11 3.35 -11 1.7 -11 0 C-6.97959015 -0.69584017 -3.91736581 -1.1700097 0 0 Z " fill="#9D7930" transform="translate(74,77)"/>
<path d="M0 0 C2 3 2 3 1.625 5.1875 C1.41875 5.785625 1.2125 6.38375 1 7 C-2.375 7.625 -2.375 7.625 -6 8 C-6.66 7.34 -7.32 6.68 -8 6 C-5.69 6 -3.38 6 -1 6 C-0.67 4.02 -0.34 2.04 0 0 Z " fill="#FBF0B0" transform="translate(80,66)"/>
<path d="M0 0 C0.33 0.66 0.66 1.32 1 2 C2.32 2 3.64 2 5 2 C5 2.99 5 3.98 5 5 C3.68 5 2.36 5 1 5 C0.67 5.66 0.34 6.32 0 7 C-1.125 2.25 -1.125 2.25 0 0 Z " fill="#6D5C47" transform="translate(137,112)"/>
<path d="M0 0 C-1.22053859 3.66161578 -2.36782304 4.16270474 -5.5625 6.1875 C-6.38878906 6.71730469 -7.21507812 7.24710938 -8.06640625 7.79296875 C-8.70449219 8.19128906 -9.34257813 8.58960938 -10 9 C-8.22001491 4.99503355 -4.82420328 0 0 0 Z " fill="#D9CFBA" transform="translate(56,30)"/>
<path d="M0 0 C1.32 0.99 2.64 1.98 4 3 C4 2.34 4 1.68 4 1 C5.32 1 6.64 1 8 1 C8 1.99 8 2.98 8 4 C5.03 4 2.06 4 -1 4 C-0.67 2.68 -0.34 1.36 0 0 Z " fill="#5A4A2F" transform="translate(78,118)"/>
<path d="M0 0 C0 0.99 0 1.98 0 3 C-3.3 3.33 -6.6 3.66 -10 4 C-7.93026888 -0.13946223 -4.25879356 -0.23659964 0 0 Z " fill="#8F6C1B" transform="translate(86,34)"/>
<path d="M0 0 C0.66 0 1.32 0 2 0 C2.12375 0.969375 2.2475 1.93875 2.375 2.9375 C2.684375 4.4534375 2.684375 4.4534375 3 6 C3.66 6.33 4.32 6.66 5 7 C3.35 7 1.7 7 0 7 C0 4.69 0 2.38 0 0 Z " fill="#7D664C" transform="translate(98,114)"/>
<path d="M0 0 C2.29633824 3.44450737 2.54016485 5.93812283 3 10 C2.01 10.66 1.02 11.32 0 12 C-0.99 11.01 -1.98 10.02 -3 9 C-1.35 9 0.3 9 2 9 C1.67 8.2575 1.34 7.515 1 6.75 C0 4 0 4 0 0 Z " fill="#090705" transform="translate(28,113)"/>
<path d="M0 0 C2.97 0.495 2.97 0.495 6 1 C5.67 3.31 5.34 5.62 5 8 C2.74754119 5.31158141 1.11786042 3.35358125 0 0 Z " fill="#98772E" transform="translate(47,45)"/>
<path d="M0 0 C0.97608217 2.92824652 1.08226668 4.95613276 1 8 C-0.32 8 -1.64 8 -3 8 C-2.25 2.25 -2.25 2.25 0 0 Z " fill="#735B42" transform="translate(21,114)"/>
<path d="M0 0 C1.98 0 3.96 0 6 0 C5.67 1.65 5.34 3.3 5 5 C4.34 5 3.68 5 3 5 C3 4.01 3 3.02 3 2 C2.01 2 1.02 2 0 2 C0 1.34 0 0.68 0 0 Z " fill="#856F48" transform="translate(7,110)"/>
<path d="M0 0 C0.99 0 1.98 0 3 0 C2.67 1.32 2.34 2.64 2 4 C1.34 4 0.68 4 0 4 C-0.33 5.32 -0.66 6.64 -1 8 C-1.625 5.125 -1.625 5.125 -2 2 C-1.34 1.34 -0.68 0.68 0 0 Z " fill="#685B3F" transform="translate(40,109)"/>
<path d="M0 0 C4.875 3.625 4.875 3.625 6 7 C4.35 6.67 2.7 6.34 1 6 C0.67 4.02 0.34 2.04 0 0 Z " fill="#957238" transform="translate(97,38)"/>
<path d="M0 0 C1.9453125 0.2421875 1.9453125 0.2421875 4.125 0.875 C4.84945312 1.07867188 5.57390625 1.28234375 6.3203125 1.4921875 C6.87460938 1.65976562 7.42890625 1.82734375 8 2 C6.375 3.125 6.375 3.125 4 4 C0.75 3.125 0.75 3.125 -2 2 C-1.34 1.34 -0.68 0.68 0 0 Z " fill="#8E7242" transform="translate(80,28)"/>
</svg>
